<svg xmlns="http://www.w3.org/2000/svg" viewBox="0 0 320 220"><defs><filter id="wash"><feTurbulence type="fractalNoise" baseFrequency=".033" numOctaves="3" seed="7" result="noise"/><feDisplacementMap in="SourceGraphic" in2="noise" scale="2.3"/></filter><pattern id="paper" width="7" height="9" patternUnits="userSpaceOnUse"><path d="M1 3l2-1M4 7l1 1" stroke="#968464" stroke-width=".45" opacity=".18"/></pattern></defs><rect width="320" height="220" fill="#f7eedb"/><rect width="320" height="220" fill="url(#paper)"/><g filter="url(#wash)" stroke="#796449" stroke-width="1.8"><path d="M79 24L237 37L224 199L60 181Z" fill="#e4d3ad"/><path d="M91 47l115 9M89 62l97 9M88 78l104 10M84 99l110 9M83 115l65 8" fill="none" stroke="#aa926d"/><path d="M237 103h16v42q15 6 17 22v35h-53v-35q1-15 20-22z" fill="#617261"/><path d="M226 172h37v24h-37z" fill="#dfcd9f"/><circle cx="102" cy="159" r="19" fill="#985861"/><path d="M95 145q-11 16 7 28q16-8 7-24z" fill="none" stroke="#d6ab93"/><path d="M89 176l-9 31 16-6 11 10 9-37" fill="#ad6c6b"/></g></svg>