<svg xmlns="http://www.w3.org/2000/svg" viewBox="0 0 320 220"><defs><filter id="wash"><feTurbulence type="fractalNoise" baseFrequency=".033" numOctaves="3" seed="7" result="noise"/><feDisplacementMap in="SourceGraphic" in2="noise" scale="2.3"/></filter><pattern id="paper" width="7" height="9" patternUnits="userSpaceOnUse"><path d="M1 3l2-1M4 7l1 1" stroke="#968464" stroke-width=".45" opacity=".18"/></pattern></defs><rect width="320" height="220" fill="#f7eedb"/><rect width="320" height="220" fill="url(#paper)"/><g filter="url(#wash)" stroke="#67594a" stroke-width="1.7" stroke-linecap="round" stroke-linejoin="round"><path d="M8 176Q72 107 154 154T318 129V220H0Z" fill="#c4cda1" stroke="none" opacity=".7"/><path d="M11 199Q118 141 316 168" fill="none" stroke="#91a076" stroke-width="10" opacity=".3"/><path d="M85 214Q92 153 136 144L183 145Q225 151 239 214" fill="#b69b53"/><path d="M143 126L141 152Q160 172 181 150L175 124" fill="#c79571"/><ellipse cx="158" cy="99" rx="40" ry="49" fill="#c79571"/><path d="M118 103Q103 47 146 43Q203 35 199 100L187 78Q160 84 139 65L120 96" fill="#a29175"/><path d="M131 100l10-2m32 1l11 2M154 104l-3 15 9 1M144 132q13 7 26-1" fill="none"/><path d="M132 155L158 180L184 155M158 180v33" fill="none" stroke="#f0dfba"/><path d="M97 185l31 24m94-23l-28 25" fill="none"/><path d="M206 213L235 102L243 105L216 217" fill="#97774e"/><path d="M232 112L223 95L232 76L242 95L251 82L258 100L244 116" fill="none" stroke="#777564" stroke-width="4"/></g><path d="M13 17q19-4 32-1M266 202q19 3 39-2" stroke="#a29173" fill="none" stroke-width="1"/></svg>