<svg xmlns="http://www.w3.org/2000/svg" viewBox="0 0 320 180"><!-- Original artwork created for this local development preview. No commercial assets. --><defs><linearGradient id="sky" x2="0" y2="1"><stop stop-color="#e7eee0"/><stop offset="1" stop-color="#f8dfad"/></linearGradient><linearGradient id="wall" x2="1" y2="1"><stop stop-color="#f4deb2"/><stop offset="1" stop-color="#c99c70"/></linearGradient></defs><path d="M0 0h320v180H0Z" fill="url(#sky)"/><circle cx="265" cy="35" r="21" fill="#e9b967"/><path d="M0 84Q65 16 142 76Q241 14 320 83V180H0" fill="#99af88"/><path d="M0 104Q80 60 166 100T320 83V180H0Z" fill="#748d62"/><path d="M0 50Q160 7 320 55V180H0Z" fill="#b8bf80"/><path d="M0 110Q160 38 320 88V180H0Z" fill="#bca079"/><path d="M-90 180L145 60" stroke="#e6cb98" stroke-width="14"/><path d="M-81 180L151 60" stroke="#716e43" stroke-width="3"/><path d="M-81.0 177.0v-18" stroke="#66523b" stroke-width="3"/><ellipse cx="-81.0" cy="159.0" rx="15.0" ry="9" fill="#50734a"/><path d="M-23.0 147.75v-18" stroke="#66523b" stroke-width="3"/><ellipse cx="-23.0" cy="129.75" rx="13.25" ry="9" fill="#50734a"/><path d="M35.0 118.5v-18" stroke="#66523b" stroke-width="3"/><ellipse cx="35.0" cy="100.5" rx="11.5" ry="9" fill="#50734a"/><path d="M93.0 89.25v-18" stroke="#66523b" stroke-width="3"/><ellipse cx="93.0" cy="71.25" rx="9.75" ry="9" fill="#50734a"/><path d="M-34 180L163 60" stroke="#e6cb98" stroke-width="14"/><path d="M-25 180L169 60" stroke="#716e43" stroke-width="3"/><path d="M-25.0 177.0v-18" stroke="#66523b" stroke-width="3"/><ellipse cx="-25.0" cy="159.0" rx="15.0" ry="9" fill="#50734a"/><path d="M23.5 147.75v-18" stroke="#66523b" stroke-width="3"/><ellipse cx="23.5" cy="129.75" rx="13.25" ry="9" fill="#50734a"/><path d="M72.0 118.5v-18" stroke="#66523b" stroke-width="3"/><ellipse cx="72.0" cy="100.5" rx="11.5" ry="9" fill="#50734a"/><path d="M120.5 89.25v-18" stroke="#66523b" stroke-width="3"/><ellipse cx="120.5" cy="71.25" rx="9.75" ry="9" fill="#50734a"/><path d="M22 180L181 60" stroke="#e6cb98" stroke-width="14"/><path d="M31 180L187 60" stroke="#716e43" stroke-width="3"/><path d="M31.0 177.0v-18" stroke="#66523b" stroke-width="3"/><ellipse cx="31.0" cy="159.0" rx="15.0" ry="9" fill="#50734a"/><path d="M70.0 147.75v-18" stroke="#66523b" stroke-width="3"/><ellipse cx="70.0" cy="129.75" rx="13.25" ry="9" fill="#50734a"/><path d="M109.0 118.5v-18" stroke="#66523b" stroke-width="3"/><ellipse cx="109.0" cy="100.5" rx="11.5" ry="9" fill="#50734a"/><path d="M148.0 89.25v-18" stroke="#66523b" stroke-width="3"/><ellipse cx="148.0" cy="71.25" rx="9.75" ry="9" fill="#50734a"/><path d="M78 180L199 60" stroke="#e6cb98" stroke-width="14"/><path d="M87 180L205 60" stroke="#716e43" stroke-width="3"/><path d="M87.0 177.0v-18" stroke="#66523b" stroke-width="3"/><ellipse cx="87.0" cy="159.0" rx="15.0" ry="9" fill="#50734a"/><path d="M116.5 147.75v-18" stroke="#66523b" stroke-width="3"/><ellipse cx="116.5" cy="129.75" rx="13.25" ry="9" fill="#50734a"/><path d="M146.0 118.5v-18" stroke="#66523b" stroke-width="3"/><ellipse cx="146.0" cy="100.5" rx="11.5" ry="9" fill="#50734a"/><path d="M175.5 89.25v-18" stroke="#66523b" stroke-width="3"/><ellipse cx="175.5" cy="71.25" rx="9.75" ry="9" fill="#50734a"/><path d="M134 180L217 60" stroke="#e6cb98" stroke-width="14"/><path d="M143 180L223 60" stroke="#716e43" stroke-width="3"/><path d="M143.0 177.0v-18" stroke="#66523b" stroke-width="3"/><ellipse cx="143.0" cy="159.0" rx="15.0" ry="9" fill="#50734a"/><path d="M163.0 147.75v-18" stroke="#66523b" stroke-width="3"/><ellipse cx="163.0" cy="129.75" rx="13.25" ry="9" fill="#50734a"/><path d="M183.0 118.5v-18" stroke="#66523b" stroke-width="3"/><ellipse cx="183.0" cy="100.5" rx="11.5" ry="9" fill="#50734a"/><path d="M203.0 89.25v-18" stroke="#66523b" stroke-width="3"/><ellipse cx="203.0" cy="71.25" rx="9.75" ry="9" fill="#50734a"/><path d="M190 180L235 60" stroke="#e6cb98" stroke-width="14"/><path d="M199 180L241 60" stroke="#716e43" stroke-width="3"/><path d="M199.0 177.0v-18" stroke="#66523b" stroke-width="3"/><ellipse cx="199.0" cy="159.0" rx="15.0" ry="9" fill="#50734a"/><path d="M209.5 147.75v-18" stroke="#66523b" stroke-width="3"/><ellipse cx="209.5" cy="129.75" rx="13.25" ry="9" fill="#50734a"/><path d="M220.0 118.5v-18" stroke="#66523b" stroke-width="3"/><ellipse cx="220.0" cy="100.5" rx="11.5" ry="9" fill="#50734a"/><path d="M230.5 89.25v-18" stroke="#66523b" stroke-width="3"/><ellipse cx="230.5" cy="71.25" rx="9.75" ry="9" fill="#50734a"/><path d="M246 180L253 60" stroke="#e6cb98" stroke-width="14"/><path d="M255 180L259 60" stroke="#716e43" stroke-width="3"/><path d="M255.0 177.0v-18" stroke="#66523b" stroke-width="3"/><ellipse cx="255.0" cy="159.0" rx="15.0" ry="9" fill="#50734a"/><path d="M256.0 147.75v-18" stroke="#66523b" stroke-width="3"/><ellipse cx="256.0" cy="129.75" rx="13.25" ry="9" fill="#50734a"/><path d="M257.0 118.5v-18" stroke="#66523b" stroke-width="3"/><ellipse cx="257.0" cy="100.5" rx="11.5" ry="9" fill="#50734a"/><path d="M258.0 89.25v-18" stroke="#66523b" stroke-width="3"/><ellipse cx="258.0" cy="71.25" rx="9.75" ry="9" fill="#50734a"/><path d="M0 161Q114 116 164 127T320 141" fill="none" stroke="#d2e8e0" stroke-width="20"/><path d="M0 161Q114 116 164 127T320 141" fill="none" stroke="#6d9d9c" stroke-width="11"/><path d="M112 132V76h48v34" fill="none" stroke="#6a7268" stroke-width="10"/></svg>