<svg xmlns="http://www.w3.org/2000/svg" viewBox="0 0 320 180"><!-- Original artwork created for this local development preview. No commercial assets. --><defs><linearGradient id="sky" x2="0" y2="1"><stop stop-color="#e7eee0"/><stop offset="1" stop-color="#f8dfad"/></linearGradient><linearGradient id="wall" x2="1" y2="1"><stop stop-color="#f4deb2"/><stop offset="1" stop-color="#c99c70"/></linearGradient></defs><path d="M0 0h320v180H0Z" fill="url(#sky)"/><circle cx="265" cy="35" r="21" fill="#e9b967"/><path d="M0 84Q65 16 142 76Q241 14 320 83V180H0" fill="#99af88"/><path d="M0 104Q80 60 166 100T320 83V180H0Z" fill="#748d62"/><g transform="translate(184 45) scale(0.55)"><path d="M25 55L95 16 165 55V132H25Z" fill="url(#wall)" stroke="#765b42" stroke-width="2"/><path d="M14 59L95 9 177 59 169 66 95 25 20 66Z" fill="#a85d43" stroke="#754333" stroke-width="2"/><path d="M43 58L95 27 150 58M63 55L95 35 126 55" fill="none" stroke="#d59261" stroke-width="3"/><path d="M80 132V99a15 15 0 0 1 30 0v33" fill="#574b37"/><path d="M42 79h22v24H42zM129 79h20v24h-20z" fill="#66837b" stroke="#fbdf9f" stroke-width="4"/><path d="M95 50v16M86 58h18" stroke="#775b40" stroke-width="4"/></g><path d="M0 168h320" stroke="#c9b184" stroke-width="24"/><path d="M116 158l5-61q28-19 49 0l13 61" fill="#b57741" stroke="#61523e" stroke-width="2"/><path d="M118 112l-24 28M173 112l28 23" stroke="#b57741" stroke-width="17"/><circle cx="146" cy="70" r="20" fill="#d6aa7e"/><path d="M117 66h59M128 62l3-21h31l5 21" stroke="#715c42" fill="#b99353" stroke-width="6"/><g transform="translate(213 133) scale(0.5)"><path d="M0 0q15-24 24-14M4-3Q-22-27-28-5Q-10 12 4-3" fill="#597543" stroke="#426043" stroke-width="3"/><circle cx="-15" cy="12" r="10" fill="#824566" stroke="#f3dcc0" stroke-width="1.5"/><circle cx="5" cy="12" r="10" fill="#824566" stroke="#f3dcc0" stroke-width="1.5"/><circle cx="24" cy="12" r="10" fill="#824566" stroke="#f3dcc0" stroke-width="1.5"/><circle cx="-5" cy="29" r="10" fill="#824566" stroke="#f3dcc0" stroke-width="1.5"/><circle cx="15" cy="29" r="10" fill="#824566" stroke="#f3dcc0" stroke-width="1.5"/><circle cx="5" cy="46" r="10" fill="#824566" stroke="#f3dcc0" stroke-width="1.5"/><path d="M-18 9l4-2M2 26l4-2M2 44l4-2" stroke="#fff" opacity=".45" stroke-width="3"/></g></svg>